<svg width="181" height="48" viewBox="0 0 181 48" fill="none" xmlns="http://www.w3.org/2000/svg">
<rect width="169" height="48" fill="#B20E2C"/>
<rect x="169" width="12" height="36" fill="#B20E2C"/>
<path d="M169 36H181L175 42L169 48V36Z" fill="#B20E2C"/>
<path d="M41.4068 29L40.1888 19.872H42.3308L42.6108 24.73C42.6108 24.9913 42.6155 25.248 42.6248 25.5C42.6341 25.7427 42.6388 25.99 42.6388 26.242C42.6481 26.4847 42.6528 26.746 42.6528 27.026H42.7088C42.7461 26.746 42.7881 26.4847 42.8348 26.242C42.8908 25.99 42.9468 25.738 43.0028 25.486C43.0588 25.234 43.1101 24.982 43.1568 24.73L43.7728 22.182H45.0888L45.6628 24.73C45.7188 24.982 45.7701 25.2293 45.8168 25.472C45.8635 25.7147 45.9148 25.9667 45.9708 26.228C46.0268 26.48 46.0735 26.746 46.1108 27.026H46.1668C46.1761 26.746 46.1808 26.48 46.1808 26.228C46.1901 25.9667 46.1948 25.7147 46.1948 25.472C46.2041 25.2293 46.2135 24.982 46.2228 24.73L46.4748 19.872H48.4768L47.3568 29H45.1448L44.6128 26.172C44.5568 25.8827 44.5055 25.5887 44.4588 25.29C44.4121 24.9913 44.3795 24.7067 44.3608 24.436H44.3188C44.2908 24.7067 44.2581 24.9913 44.2208 25.29C44.1835 25.5887 44.1368 25.8827 44.0808 26.172L43.5488 29H41.4068ZM52.7273 29.168C52.1207 29.168 51.5467 29.028 51.0053 28.748C50.464 28.4587 50.0253 28.0433 49.6893 27.502C49.3533 26.9513 49.1853 26.2933 49.1853 25.528C49.1853 24.7627 49.3533 24.1093 49.6893 23.568C50.0253 23.0173 50.464 22.602 51.0053 22.322C51.5467 22.0327 52.1207 21.888 52.7273 21.888C53.334 21.888 53.908 22.0327 54.4493 22.322C54.9907 22.602 55.4293 23.0173 55.7653 23.568C56.1013 24.1093 56.2693 24.7627 56.2693 25.528C56.2693 26.2933 56.1013 26.9513 55.7653 27.502C55.4293 28.0433 54.9907 28.4587 54.4493 28.748C53.908 29.028 53.334 29.168 52.7273 29.168ZM52.7273 27.502C53.0447 27.502 53.306 27.4227 53.5113 27.264C53.726 27.1053 53.8847 26.8767 53.9873 26.578C54.0993 26.2793 54.1553 25.9293 54.1553 25.528C54.1553 25.1267 54.0993 24.7767 53.9873 24.478C53.8847 24.1793 53.726 23.9507 53.5113 23.792C53.306 23.6333 53.0447 23.554 52.7273 23.554C52.41 23.554 52.144 23.6333 51.9293 23.792C51.724 23.9507 51.5653 24.1793 51.4533 24.478C51.3507 24.7767 51.2993 25.1267 51.2993 25.528C51.2993 25.9293 51.3507 26.2793 51.4533 26.578C51.5653 26.8767 51.724 27.1053 51.9293 27.264C52.144 27.4227 52.41 27.502 52.7273 27.502ZM58.5459 29V22.056H60.2259L60.3939 23.568H60.4359C60.7812 22.9987 61.1965 22.5787 61.6819 22.308C62.1765 22.028 62.6992 21.888 63.2499 21.888C63.5579 21.888 63.8052 21.9113 63.9919 21.958C64.1879 22.0047 64.3885 22.0747 64.5939 22.168L64.1739 23.89C63.9592 23.8247 63.7632 23.778 63.5859 23.75C63.4179 23.7127 63.2032 23.694 62.9419 23.694C62.5125 23.694 62.0879 23.82 61.6679 24.072C61.2572 24.324 60.9025 24.7627 60.6039 25.388V29H58.5459ZM66.3804 29V19.186H68.4384V24.856H68.4944L71.0424 22.056H73.2964L68.4384 27.25V29H66.3804ZM71.2804 29L69.2644 25.85L70.4404 24.576L73.5064 29H71.2804ZM83.3795 29L82.1615 19.872H84.3035L84.5835 24.73C84.5835 24.9913 84.5881 25.248 84.5975 25.5C84.6068 25.7427 84.6115 25.99 84.6115 26.242C84.6208 26.4847 84.6255 26.746 84.6255 27.026H84.6815C84.7188 26.746 84.7608 26.4847 84.8075 26.242C84.8635 25.99 84.9195 25.738 84.9755 25.486C85.0315 25.234 85.0828 24.982 85.1295 24.73L85.7455 22.182H87.0615L87.6355 24.73C87.6915 24.982 87.7428 25.2293 87.7895 25.472C87.8361 25.7147 87.8875 25.9667 87.9435 26.228C87.9995 26.48 88.0461 26.746 88.0835 27.026H88.1395C88.1488 26.746 88.1535 26.48 88.1535 26.228C88.1628 25.9667 88.1675 25.7147 88.1675 25.472C88.1768 25.2293 88.1861 24.982 88.1955 24.73L88.4475 19.872H90.4495L89.3295 29H87.1175L86.5855 26.172C86.5295 25.8827 86.4781 25.5887 86.4315 25.29C86.3848 24.9913 86.3521 24.7067 86.3335 24.436H86.2915C86.2635 24.7067 86.2308 24.9913 86.1935 25.29C86.1561 25.5887 86.1095 25.8827 86.0535 26.172L85.5215 29H83.3795ZM94.392 29V23.666H91.592V22.056H96.45V29H94.392ZM95.33 20.964C94.938 20.964 94.6113 20.852 94.35 20.628C94.0887 20.3947 93.958 20.0913 93.958 19.718C93.958 19.3353 94.0887 19.0273 94.35 18.794C94.6113 18.5513 94.938 18.43 95.33 18.43C95.7313 18.43 96.058 18.5513 96.31 18.794C96.5713 19.0273 96.702 19.3353 96.702 19.718C96.702 20.0913 96.5713 20.3947 96.31 20.628C96.058 20.852 95.7313 20.964 95.33 20.964ZM104.327 29.168C103.589 29.168 103.001 29.042 102.563 28.79C102.133 28.5287 101.821 28.1693 101.625 27.712C101.429 27.2547 101.331 26.7227 101.331 26.116V23.666H99.5945V22.14L101.429 22.056L101.695 19.928H103.389V22.056H106.329V23.666H103.389V26.102C103.389 26.4473 103.44 26.7273 103.543 26.942C103.645 27.1567 103.804 27.3153 104.019 27.418C104.233 27.5113 104.509 27.558 104.845 27.558C105.115 27.558 105.363 27.5347 105.587 27.488C105.811 27.4413 106.025 27.3807 106.231 27.306L106.595 28.79C106.287 28.8833 105.946 28.9673 105.573 29.042C105.209 29.126 104.793 29.168 104.327 29.168ZM108.297 29V19.186H110.355V21.594L110.243 22.924H110.285C110.546 22.6533 110.864 22.4153 111.237 22.21C111.62 21.9953 112.072 21.888 112.595 21.888C113.379 21.888 113.948 22.14 114.303 22.644C114.667 23.148 114.849 23.8387 114.849 24.716V29H112.791V24.982C112.791 24.5153 112.712 24.1747 112.553 23.96C112.404 23.7453 112.142 23.638 111.769 23.638C111.489 23.638 111.242 23.7033 111.027 23.834C110.822 23.9553 110.598 24.1327 110.355 24.366V29H108.297ZM128.306 29.168C127.746 29.168 127.256 29.0887 126.836 28.93C126.425 28.762 126.08 28.524 125.8 28.216C125.529 27.8987 125.324 27.516 125.184 27.068C125.044 26.6107 124.974 26.0833 124.974 25.486V19.872H127.032V25.696C127.032 26.06 127.079 26.368 127.172 26.62C127.265 26.872 127.405 27.0633 127.592 27.194C127.779 27.3247 128.017 27.39 128.306 27.39C128.595 27.39 128.833 27.3247 129.02 27.194C129.216 27.0633 129.361 26.872 129.454 26.62C129.547 26.368 129.594 26.06 129.594 25.696V19.872H131.582V25.486C131.582 26.0833 131.517 26.6107 131.386 27.068C131.255 27.516 131.05 27.8987 130.77 28.216C130.499 28.524 130.159 28.762 129.748 28.93C129.337 29.0887 128.857 29.168 128.306 29.168ZM136.617 29.168C136.001 29.168 135.389 29.0653 134.783 28.86C134.176 28.6453 133.653 28.3933 133.215 28.104L134.097 26.816C134.517 27.0867 134.96 27.292 135.427 27.432C135.903 27.572 136.393 27.642 136.897 27.642C137.279 27.642 137.559 27.586 137.737 27.474C137.914 27.3527 138.003 27.2127 138.003 27.054C138.003 26.9513 137.975 26.8673 137.919 26.802C137.872 26.7273 137.783 26.662 137.653 26.606C137.531 26.5407 137.359 26.48 137.135 26.424C136.92 26.368 136.64 26.3027 136.295 26.228C135.352 26.0227 134.675 25.7427 134.265 25.388C133.854 25.0333 133.649 24.59 133.649 24.058C133.649 23.4047 133.933 22.882 134.503 22.49C135.072 22.0887 135.851 21.888 136.841 21.888C137.466 21.888 138.031 21.9907 138.535 22.196C139.048 22.392 139.487 22.6067 139.851 22.84L138.927 24.072C138.581 23.8573 138.213 23.694 137.821 23.582C137.429 23.47 137.041 23.414 136.659 23.414C136.444 23.414 136.267 23.4373 136.127 23.484C135.987 23.5213 135.879 23.5867 135.805 23.68C135.73 23.764 135.693 23.8573 135.693 23.96C135.693 24.1467 135.814 24.2867 136.057 24.38C136.299 24.464 136.715 24.5713 137.303 24.702C138.012 24.8607 138.567 25.0427 138.969 25.248C139.37 25.4533 139.645 25.6913 139.795 25.962C139.953 26.2233 140.033 26.5453 140.033 26.928C140.033 27.348 139.902 27.726 139.641 28.062C139.389 28.398 139.006 28.6687 138.493 28.874C137.989 29.07 137.363 29.168 136.617 29.168Z" fill="white"/>
</svg>
