<svg width="170" height="170" viewBox="0 0 170 170" fill="none" xmlns="http://www.w3.org/2000/svg">
<path d="M146.534 61.8107C145.178 61.8107 143.821 61.8108 142.464 62.1845C141.107 45.7421 128.557 33.0365 113.293 33.4102C109.222 14.3519 93.6192 0.525391 75.6416 0.525391C59.36 0.525391 45.1136 11.7361 39.3472 28.5523C39.008 28.5523 39.008 28.5523 38.6688 28.5523C17.2992 28.5523 0 47.6104 0 71.153C0 74.8899 0.339199 78.2532 1.3568 81.9901H0V95.8168V99.5537V169.808H121.773V113.754H146.195C159.085 113.754 169.6 102.169 169.6 87.9691C169.939 73.3951 159.424 61.8107 146.534 61.8107ZM3.392 85.7271H118.381V95.8168H3.392V85.7271ZM118.381 165.697H3.392V99.1799H118.381V165.697ZM146.534 110.017H122.112V99.5537V95.8168V81.9901H5.4272C4.4096 78.6269 4.0704 74.8899 4.0704 71.153C4.0704 49.8526 19.6736 32.2892 39.3472 32.2892C40.0256 32.2892 40.3648 32.2892 41.0432 32.2892H42.4L42.7392 30.7943C47.488 14.7256 60.7168 4.26231 75.9808 4.26231C92.9408 4.26231 107.187 17.3414 110.579 35.6523L110.918 37.1471H112.614C113.293 37.1471 113.971 37.1471 114.65 37.1471C128.218 37.1471 139.411 49.4789 139.411 64.4266V66.6689L141.446 65.9214C143.142 65.5478 144.838 65.174 146.534 65.174C157.728 65.174 166.547 75.2638 166.547 87.2219C166.547 99.9274 157.389 110.017 146.534 110.017Z" fill="#010101"/>
<path d="M8.81929 92.4533C9.75597 92.4533 10.5153 91.6168 10.5153 90.5849C10.5153 89.553 9.75597 88.7164 8.81929 88.7164C7.88262 88.7164 7.12329 89.553 7.12329 90.5849C7.12329 91.6168 7.88262 92.4533 8.81929 92.4533Z" fill="#010101"/>
<path d="M15.6032 92.4533C16.5399 92.4533 17.2992 91.6168 17.2992 90.5849C17.2992 89.553 16.5399 88.7164 15.6032 88.7164C14.6666 88.7164 13.9072 89.553 13.9072 90.5849C13.9072 91.6168 14.6666 92.4533 15.6032 92.4533Z" fill="#010101"/>
<path d="M22.3872 92.4533C23.3238 92.4533 24.0832 91.6168 24.0832 90.5849C24.0832 89.553 23.3238 88.7164 22.3872 88.7164C21.4505 88.7164 20.6912 89.553 20.6912 90.5849C20.6912 91.6168 21.4505 92.4533 22.3872 92.4533Z" fill="#010101"/>
<path d="M89.888 145.891C89.888 145.891 90.2272 145.891 89.888 145.891C93.28 145.891 96.3328 144.396 98.7072 141.781C101.082 139.165 102.099 135.802 102.099 132.438C102.099 129.075 100.742 125.712 98.368 123.096C95.9936 120.48 92.9408 119.359 89.888 119.359C83.104 119.359 78.016 125.712 78.016 132.812C78.016 139.912 83.4432 145.891 89.888 145.891ZM89.888 122.722C94.6368 122.722 98.7072 126.833 98.7072 132.065C98.7072 134.681 98.0288 136.923 96.3328 138.791C94.6368 140.66 92.6016 141.781 90.2272 141.781C87.8528 141.781 85.8176 141.033 84.1216 139.165C82.4256 137.296 81.408 135.054 81.408 132.438C81.0688 127.207 85.1392 123.096 89.888 122.722Z" fill="#010101"/>
<path d="M66.4832 127.58V137.296L71.9104 138.044C72.2496 139.539 72.928 141.033 73.6064 142.154L70.5536 147.012L76.6592 153.739L81.0688 150.002C82.4256 150.749 83.7824 151.497 85.1392 151.87L86.1568 157.476H94.976L95.6544 151.497C97.0112 151.123 98.368 150.375 99.7248 149.628L104.134 152.991L110.24 146.265L106.848 141.407C107.526 139.912 107.866 138.417 108.205 136.923L113.632 135.802V126.086L107.866 125.338C107.526 123.843 106.848 122.722 106.17 121.228L109.562 115.996L103.456 109.269L98.7072 113.38C97.6896 112.633 96.3328 112.259 95.3152 111.885L94.2976 105.159H85.4784L84.8 111.885C83.7824 112.259 82.4256 113.007 81.408 113.38L76.32 109.643L70.2144 116.37L73.6064 121.601C72.928 122.722 72.5888 124.217 72.2496 125.712L66.4832 127.58ZM74.624 117.864L76.6592 115.622L81.0688 118.986L82.0864 118.238C83.4432 117.117 85.1392 116.37 86.496 115.996L87.5136 115.622L88.192 110.017H90.9056L91.9232 115.996L92.9408 116.37C94.6368 116.743 95.9936 117.491 97.3504 118.238L98.368 118.986L102.778 115.249L104.813 117.491L101.76 122.349L102.438 123.47C103.456 124.964 104.134 126.833 104.474 128.701L104.813 129.823L109.901 130.57V133.559L104.813 134.307L104.474 135.428C104.134 137.296 103.456 139.165 102.438 141.033L101.76 142.154L104.813 146.265L102.778 148.507L99.0464 145.518L98.0288 146.265C96.3328 147.386 94.6368 148.134 92.9408 148.881L91.9232 149.255L91.2448 154.486H88.5312L87.8528 149.255L86.8352 148.881C85.1392 148.507 83.104 147.76 81.7472 146.639L80.7296 145.891L76.9984 149.255L74.9632 147.012L77.6768 142.528L76.9984 141.407C75.9808 139.539 75.3024 138.044 74.9632 135.802L74.624 134.68L69.536 133.933V130.944L74.624 129.823L74.9632 128.701C75.3024 126.833 75.9808 124.964 76.9984 123.47L77.6768 122.349L74.624 117.864Z" fill="#010101"/>
<path d="M54.9504 113.38H9.49756V123.096H54.9504V113.38ZM51.5584 118.986H12.8896V116.743H51.5584V118.986Z" fill="#010101"/>
<path d="M54.9504 127.207H9.49756V136.923H54.9504V127.207ZM51.5584 133.186H12.8896V130.943H51.5584V133.186Z" fill="#010101"/>
<path d="M54.9504 141.407H9.49756V151.123H54.9504V141.407ZM51.5584 147.012H12.8896V144.77H51.5584V147.012Z" fill="#010101"/>
</svg>
