<svg width="132" height="187" viewBox="0 0 132 187" fill="none" xmlns="http://www.w3.org/2000/svg">
<path d="M125.504 0H6.44478C2.71358 0 0 3.36309 0 7.10001V178.998C0 183.109 3.05278 186.098 6.44478 186.098H125.504C129.235 186.098 131.949 182.735 131.949 178.998V7.10001C131.949 2.9894 129.235 0 125.504 0ZM128.557 178.998C128.557 180.867 127.2 182.362 125.504 182.362H6.44478C4.74878 182.362 3.392 180.867 3.392 178.998V7.10001C3.392 5.23155 4.74878 3.73692 6.44478 3.73692H125.504C127.2 3.73692 128.557 5.23155 128.557 7.10001V178.998Z" fill="#231F20"/>
<path d="M8.14078 163.677H124.147V9.34229H8.14078V163.677ZM11.5328 13.0792H120.755V159.94H11.5328V13.0792Z" fill="#231F20"/>
<path d="M68.1792 167.04C65.1264 167.04 62.752 169.656 62.752 173.019C62.752 176.382 65.1264 178.998 68.1792 178.998C71.232 178.998 73.6064 176.382 73.6064 173.019C73.6064 169.656 71.232 167.04 68.1792 167.04Z" fill="#231F20"/>
</svg>
