<svg width="165" height="180" viewBox="0 0 165 180" fill="none" xmlns="http://www.w3.org/2000/svg">
<path d="M3.26733 176.011V0.71167H0V179.61H165V176.011H3.26733Z" fill="#010101"/>
<path d="M29.7326 146.854C34.6336 146.854 38.5544 142.535 38.5544 137.135V136.775L64.693 129.576C66.3267 132.096 68.9406 133.896 71.8812 133.896C76.7822 133.896 80.7029 129.576 80.7029 124.177C80.7029 123.097 80.3761 122.017 80.3761 121.297L108.475 80.9821C109.782 81.702 111.089 82.4219 112.723 82.4219C115.99 82.4219 118.931 80.6221 120.238 77.7425L133.307 86.7414C132.327 88.1812 131.673 90.341 131.673 92.1407C131.673 97.5401 135.594 101.86 140.495 101.86C145.396 101.86 149.317 97.5401 149.317 92.1407C149.317 86.7414 145.396 82.4219 140.495 82.4219C138.535 82.4219 136.901 83.1418 135.594 84.2217L121.218 74.1429C121.218 73.7829 121.218 73.063 121.218 72.7031C121.218 67.3037 117.297 62.9843 112.396 62.9843C107.495 62.9843 103.574 67.3037 103.574 72.7031C103.574 75.2228 104.228 77.0226 105.535 78.8224L78.0891 118.058C76.4554 115.898 74.1683 114.818 71.5544 114.818C66.6534 114.818 62.7326 119.137 62.7326 124.537C62.7326 125.257 62.7326 125.977 63.0594 126.697L37.5742 133.896C36.2673 130.296 33 127.776 29.4059 127.776C24.5049 127.776 20.5841 132.096 20.5841 137.495C20.9108 142.535 24.8316 146.854 29.7326 146.854Z" fill="#010101"/>
</svg>
