<svg width="47" height="47" viewBox="0 0 47 47" fill="none" xmlns="http://www.w3.org/2000/svg">
<path d="M23.2981 4.27133C29.511 4.27133 30.2876 4.27132 32.8115 4.46548C39.2185 4.65963 42.1308 7.76604 42.3249 13.9789C42.5191 16.5028 42.5191 17.0853 42.5191 23.2981C42.5191 29.511 42.5191 30.2876 42.3249 32.6174C42.1308 38.8302 39.0244 41.9366 32.8115 42.1308C30.2876 42.3249 29.7051 42.3249 23.2981 42.3249C17.0853 42.3249 16.3087 42.3249 13.9789 42.1308C7.57189 41.9366 4.65963 38.8302 4.46548 32.6174C4.27132 30.0934 4.27133 29.511 4.27133 23.2981C4.27133 17.0853 4.27132 16.3087 4.46548 13.9789C4.65963 7.76604 7.76604 4.65963 13.9789 4.46548C16.3087 4.27132 17.0853 4.27133 23.2981 4.27133ZM23.2981 0C16.8911 0 16.1145 0 13.7847 0.194151C5.24208 0.582453 0.582453 5.24208 0.194151 13.7847C0 16.1145 0 16.8911 0 23.2981C0 29.7051 0 30.4817 0.194151 32.8115C0.582453 41.3542 5.24208 46.0138 13.7847 46.4021C16.1145 46.5963 16.8911 46.5963 23.2981 46.5963C29.7051 46.5963 30.4817 46.5963 32.8115 46.4021C41.3542 46.0138 46.0138 41.3542 46.4021 32.8115C46.5963 30.4817 46.5963 29.7051 46.5963 23.2981C46.5963 16.8911 46.5963 16.1145 46.4021 13.7847C46.0138 5.24208 41.3542 0.582453 32.8115 0.194151C30.4817 0 29.7051 0 23.2981 0ZM23.2981 11.2608C16.697 11.2608 11.2608 16.697 11.2608 23.2981C11.2608 29.8993 16.697 35.3355 23.2981 35.3355C29.8993 35.3355 35.3355 29.8993 35.3355 23.2981C35.3355 16.697 29.8993 11.2608 23.2981 11.2608ZM23.2981 31.0642C19.0268 31.0642 15.5321 27.5695 15.5321 23.2981C15.5321 19.0268 19.0268 15.5321 23.2981 15.5321C27.5695 15.5321 31.0642 19.0268 31.0642 23.2981C31.0642 27.5695 27.5695 31.0642 23.2981 31.0642ZM35.7238 8.15435C34.1706 8.15435 33.0057 9.31925 33.0057 10.8725C33.0057 12.4257 34.1706 13.5906 35.7238 13.5906C37.277 13.5906 38.4419 12.4257 38.4419 10.8725C38.4419 9.31925 37.277 8.15435 35.7238 8.15435Z" fill="black"/>
</svg>
