<svg width="47" height="38" viewBox="0 0 47 38" fill="none" xmlns="http://www.w3.org/2000/svg">
<path d="M14.6541 37.8698C32.2384 37.8698 41.8547 23.3016 41.8547 10.6693C41.8547 10.2554 41.8462 9.8436 41.8271 9.43341C43.6936 8.08411 45.3164 6.39988 46.5963 4.48352C44.8834 5.24455 43.0402 5.75703 41.1063 5.9881C43.0799 4.80468 44.5956 2.93178 45.3106 0.699556C43.4631 1.795 41.4174 2.59101 39.2403 3.02028C37.4951 1.16222 35.0107 0 32.2617 0C26.9817 0 22.7001 4.2816 22.7001 9.55901C22.7001 10.3094 22.7843 11.0387 22.9476 11.7388C15.0028 11.3397 7.95745 7.53507 3.24287 1.75101C2.42089 3.16337 1.94763 4.80521 1.94763 6.55569C1.94763 9.87222 3.63557 12.8003 6.2022 14.5137C4.63403 14.4654 3.16072 14.0341 1.87237 13.3175C1.87025 13.3573 1.87025 13.3976 1.87025 13.4394C1.87025 18.0697 5.16612 21.9353 9.53993 22.8114C8.73703 23.0302 7.89226 23.1479 7.01994 23.1479C6.40412 23.1479 5.80526 23.0864 5.22282 22.9757C6.43963 26.7734 9.9692 29.5377 14.1538 29.6156C10.8813 32.1801 6.7592 33.708 2.28045 33.708C1.50935 33.708 0.748313 33.664 0 33.5755C4.23072 36.2868 9.25428 37.8698 14.6541 37.8698Z" fill="black"/>
</svg>
